{"title":"Break.Point.2014.WEBRip.XViD.AC3-Sorrow","uid":12146874,"size":1022621895,"categoryP":"video","categoryS":"movies","magnet":"?xt=urn:btih:59cc101c661e605fde0f1bc733bbcb2ab6932ba2&amp;dn=Break.Point.2014.WEBRip.XViD.AC3-Sorrow&amp;tr=udp%3A%2F%2Ftracker.openbittorrent.com%3A80&amp;tr=udp%3A%2F%2Fopen.demonii.com%3A1337&amp;tr=udp%3A%2F%2Ftracker.coppersurfer.tk%3A6969&amp;tr=udp%3A%2F%2Fexodus.desync.com%3A6969","seeders":1,"leechers":0,"uploader":null,"files":3,"time":1437493633,"description":"\nBreak Point 2014 WEBRip XViD AC3-Sorrow\n\nGeneral\nComplete name                            : Break.Point.2014.WEBRip.XViD.AC3-Sorrow.avi\nFormat                                   : AVI\nFormat/Info                              : Audio Video Interleave\nFile size                                : 945 MiB\nDuration                                 : 1h 30mn\nOverall bit rate                         : 1 454 Kbps\nWriting application                      : Lavf55.19.104\n\nVideo\nID                                       : 0\nFormat                                   : MPEG-4 Visual\nFormat profile                           : Simple@L3\nFormat settings, BVOP                    : No\nFormat settings, QPel                    : No\nFormat settings, GMC                     : No warppoints\nFormat settings, Matrix                  : Default (H.263)\nCodec ID                                 : XVID\nCodec ID/Hint                            : XviD\nDuration                                 : 1h 30mn\nBit rate                                 : 995 Kbps\nWidth                                    : 720 pixels\nHeight                                   : 304 pixels\nDisplay aspect ratio                     : 2.40:1\nFrame rate                               : 23.976 fps\nColor space                              : YUV\nChroma subsampling                       : 4:2:0\nBit depth                                : 8 bits\nScan type                                : Progressive\nCompression mode                         : Lossy\nBits/(Pixel*Frame)                       : 0.190\nStream size                              : 647 MiB (68%)\nWriting library                          : XviD 64\n\nAudio\nID                                       : 1\nFormat                                   : AC-3\nFormat/Info                              : Audio Coding 3\nMode extension                           : CM (complete main)\nFormat settings, Endianness              : Big\nCodec ID                                 : 2000\nDuration                                 : 1h 30mn\nBit rate mode                            : Constant\nBit rate                                 : 448 Kbps\nChannel count                            : 2 channels\nChannel positions                        : Front: L R\nSampling rate                            : 48.0 KHz\nBit depth                                : 16 bits\nCompression mode                         : Lossy\nStream size                              : 291 MiB (31%)\nAlignment                                : Aligned on interleaves\nInterleave, duration                     : 32 ms (0.77 video frame)\n\n\n\nSource:Break.Point.2014.720p.WEB-DL.DD5.1.H264-PLAYNOW\n\nSample:Included\n\nComedy:Sport\n\nTwo estranged brothers reunite to make an improbable run at a grand slam tennis tournament.\n\n\nDirector: Jay Karas \n\nWriters: Gene Hong (story), Gene Hong, 5 more credits Â» \n\nStars: Jeremy Sisto, Adam DeVine, Cy Amundson\n &lt;a href=&quot;\nhttp://www.imdb.com/title/tt3062742/&quot; rel=&quot;nofollow&quot; target=&quot;_NEW&quot;&gt;\nhttp://www.imdb.com/title/tt3062742/&lt;/a&gt;","torrent":{"xt":"urn:btih:59cc101c661e605fde0f1bc733bbcb2ab6932ba2","amp;dn":"Break.Point.2014.WEBRip.XViD.AC3-Sorrow","amp;tr":["udp%3A%2F%2Ftracker.openbittorrent.com%3A80","udp%3A%2F%2Fopen.demonii.com%3A1337","udp%3A%2F%2Ftracker.coppersurfer.tk%3A6969","udp%3A%2F%2Fexodus.desync.com%3A6969"],"infoHash":"59cc101c661e605fde0f1bc733bbcb2ab6932ba2","infoHashBuffer":{"type":"Buffer","data":[89,204,16,28,102,30,96,95,222,15,27,199,51,187,203,42,182,147,43,162]},"announce":[],"urlList":[]}}